<?xml version="1.0" standalone="no"?>
<!DOCTYPE svg PUBLIC "-//W3C//DTD SVG 20010904//EN"
 "http://www.w3.org/TR/2001/REC-SVG-20010904/DTD/svg10.dtd">
<svg version="1.0" xmlns="http://www.w3.org/2000/svg"
 width="625.000000pt" height="625.000000pt" viewBox="0 0 625.000000 625.000000"
 preserveAspectRatio="xMidYMid meet">
<metadata>
Created by potrace 1.11, written by Peter Selinger 2001-2013
</metadata>
<g transform="translate(0.000000,625.000000) scale(0.100000,-0.100000)"
fill="#000000" stroke="none">
<path d="M485 6143 c-11 -2 -54 -15 -95 -30 -190 -65 -338 -230 -379 -422 -8
-38 -10 -757 -8 -2594 2 -2334 4 -2546 19 -2588 64 -181 183 -304 363 -376
l70 -28 2670 0 2670 0 59 22 c153 58 281 172 341 306 59 131 55 -72 55 2684 0
2788 5 2573 -63 2713 -45 94 -159 206 -257 253 -149 73 90 67 -2810 66 -1438
-1 -2624 -3 -2635 -6z m5275 -259 c96 -33 163 -91 212 -186 l23 -43 3 -2512
c2 -2477 2 -2514 -17 -2569 -36 -101 -128 -185 -236 -215 -29 -8 -748 -11
-2625 -11 -2424 0 -2588 1 -2635 17 -68 24 -128 66 -170 122 -70 92 -65 -119
-63 2658 l3 2510 27 51 c31 60 92 124 140 149 87 46 -34 44 2703 44 2315 1
2595 -1 2635 -15z"/>
<path d="M1135 5684 c-44 -44 -57 -98 -41 -172 6 -29 -2 -52 -20 -52 -8 0 -14
-3 -14 -7 -1 -13 -62 -75 -133 -135 -134 -113 -139 -125 -142 -310 -1 -120 1
-151 13 -157 7 -4 13 -11 13 -14 -1 -4 0 -8 0 -9 1 -2 2 -27 4 -57 1 -39 7
-58 20 -67 10 -7 21 -11 25 -9 5 3 11 -2 14 -10 4 -12 10 -13 24 -6 13 7 17
20 16 59 -1 27 -5 63 -8 80 -4 16 -3 33 2 36 12 7 21 70 24 174 2 76 16 119
32 94 8 -14 -1 -190 -12 -248 -14 -67 -17 -252 -4 -284 5 -14 8 -38 7 -55 -2
-16 -6 -71 -9 -121 -8 -127 -13 -145 -67 -255 -84 -168 -118 -271 -119 -354
l0 -40 40 0 c22 0 40 4 40 9 0 5 20 6 48 1 65 -10 116 -7 147 9 24 13 25 15
10 30 -9 9 -26 16 -38 16 -12 0 -36 9 -54 20 -30 18 -31 21 -22 52 11 42 84
183 114 223 19 26 72 154 73 178 0 4 3 24 6 45 3 20 8 55 10 77 10 83 18 130
21 134 2 2 19 5 37 6 18 2 34 7 36 13 4 12 43 3 142 -32 78 -29 96 -34 118
-35 7 -1 11 -5 8 -10 -17 -26 -24 -296 -11 -390 l7 -51 39 0 c21 0 39 4 39 9
0 5 35 11 78 13 95 6 140 21 122 43 -7 8 -25 15 -41 15 -38 0 -77 19 -84 41
-9 26 4 219 20 311 12 70 12 83 -1 102 -31 49 -115 108 -230 163 -58 27 -98
53 -101 64 -4 15 -36 31 -68 33 -12 1 -20 96 -8 96 5 0 13 -4 18 -9 15 -14
187 -66 209 -63 10 1 24 -3 31 -8 17 -14 45 24 45 62 0 20 -5 28 -18 28 -10 0
-22 3 -25 7 -4 3 -51 25 -104 49 l-98 42 -23 59 c-13 32 -26 69 -28 83 -3 13
-18 54 -33 90 -40 90 -44 109 -32 124 6 7 22 12 36 10 14 -1 25 1 25 6 0 4 8
25 17 46 9 22 15 44 13 49 -3 9 -10 89 -11 125 -1 18 -67 50 -103 50 -14 0
-32 -7 -41 -16z m-242 -989 c-3 -9 -8 -14 -10 -11 -3 3 -2 9 2 15 9 16 15 13
8 -4z"/>
<path d="M4299 5202 l-56 -3 0 -1390 c0 -1259 2 -1391 16 -1397 20 -9 563 -8
578 1 8 5 12 180 13 574 1 552 8 1688 9 1728 1 20 9 20 354 22 193 1 366 2
382 3 l30 0 2 230 2 230 -37 1 c-170 2 -1249 3 -1293 1z"/>
<path d="M3109 4740 c0 -3 -2 -12 -4 -20 -1 -8 -6 -33 -9 -55 -4 -22 -11 -65
-16 -95 -8 -52 -18 -111 -24 -155 -10 -64 -19 -123 -37 -230 -24 -148 -50
-312 -54 -342 -2 -13 -6 -42 -10 -65 -4 -24 -9 -52 -11 -63 -12 -80 -36 -224
-40 -245 -2 -14 -7 -43 -9 -65 -3 -22 -7 -47 -10 -55 -2 -8 -7 -35 -10 -60 -3
-25 -19 -126 -35 -225 -16 -99 -32 -196 -34 -215 -3 -19 -7 -44 -9 -55 -3 -11
-7 -41 -11 -66 -4 -25 -9 -57 -11 -70 -2 -13 -7 -42 -9 -64 -3 -22 -11 -70
-17 -108 -7 -37 -9 -70 -6 -74 8 -8 415 -9 423 -1 5 5 25 130 39 243 3 28 10
75 15 105 5 30 11 73 14 95 8 72 18 125 25 126 36 7 264 2 267 -6 3 -8 21
-175 39 -355 2 -25 8 -72 12 -105 4 -33 6 -67 4 -77 -1 -9 3 -20 10 -24 19
-11 480 -11 495 1 10 8 10 28 -1 105 -7 52 -16 118 -19 145 -3 28 -10 92 -16
143 -6 52 -12 108 -15 125 -2 18 -9 75 -15 127 -6 52 -13 106 -15 120 -2 14
-6 50 -10 80 -3 30 -10 87 -15 125 -5 39 -12 95 -15 125 -4 30 -8 66 -10 80
-2 14 -7 48 -10 75 -7 66 -16 134 -20 165 -2 14 -6 50 -10 80 -3 30 -13 109
-21 175 -8 66 -17 138 -19 160 -3 22 -7 56 -10 75 -2 19 -7 56 -10 83 -8 73
-16 139 -20 167 -2 14 -7 52 -10 85 -4 33 -8 67 -11 75 -3 13 -51 15 -354 15
-192 0 -350 -2 -351 -5z m316 -465 c3 -44 8 -107 10 -140 5 -60 8 -108 20
-295 3 -52 8 -117 10 -145 10 -131 16 -206 20 -277 l6 -78 -91 0 -91 0 6 73
c4 39 8 83 10 97 1 14 5 59 9 100 4 41 9 91 11 110 3 19 7 67 10 105 4 39 8
84 9 100 2 17 7 64 10 105 4 41 9 91 11 110 2 19 7 69 10 110 6 74 13 115 20
108 2 -2 6 -39 10 -83z"/>
<path d="M2120 4330 c-5 -3 -9 -329 -9 -725 0 -396 0 -743 -1 -771 l0 -51
-123 -1 -124 -1 -1 607 c0 334 -1 616 -1 627 -1 19 -8 20 -236 21 -166 1 -235
-2 -236 -10 -1 -6 -2 -288 -3 -626 l-1 -615 -119 -3 c-69 -1 -122 1 -125 7 -4
5 -6 221 -6 480 l0 471 -35 1 c-129 2 -434 -1 -438 -5 -7 -8 -6 -1315 1 -1322
9 -9 1905 -11 1919 -3 11 7 15 1905 4 1916 -7 8 -454 10 -466 3z"/>
<path d="M1155 2204 c-91 -22 -113 -76 -109 -255 4 -176 31 -211 169 -212 80
-1 122 17 158 66 19 24 21 42 21 170 0 122 -3 146 -18 170 -39 58 -132 84
-221 61z m87 -229 c0 -132 -7 -165 -31 -151 -16 11 -15 293 2 299 24 9 29 -13
29 -148z"/>
<path d="M3827 2209 c-109 -17 -130 -55 -129 -236 0 -111 4 -139 19 -166 45
-78 211 -98 281 -34 34 31 42 50 48 111 l6 54 -76 0 -75 0 -3 -56 c-3 -49 -6
-57 -23 -57 -18 0 -20 7 -20 70 l0 70 85 0 c47 0 91 4 99 9 17 11 9 122 -13
164 -18 35 -58 63 -100 69 -17 2 -35 5 -41 7 -5 1 -32 -1 -58 -5z m58 -125 c0
-29 -4 -40 -17 -42 -15 -3 -18 4 -18 36 0 21 3 42 7 46 15 15 28 -3 28 -40z"/>
<path d="M4305 2204 c-21 -7 -42 -19 -46 -26 -6 -9 -9 -7 -9 7 0 19 -6 21 -72
19 -40 -1 -76 -2 -80 -3 -4 0 -7 -118 -7 -261 l0 -260 30 -1 c16 -1 40 -1 54
-1 77 0 77 0 75 35 -3 57 -2 59 24 41 52 -33 132 -19 157 29 18 33 20 343 2
379 -22 46 -71 62 -128 42z m-17 -228 c2 -125 0 -147 -13 -152 -9 -4 -18 -4
-20 -2 -8 8 -8 285 0 298 4 6 12 9 18 7 8 -2 13 -50 15 -151z"/>
<path d="M5023 2210 c-56 -8 -111 -47 -119 -85 -12 -50 -12 -94 0 -98 9 -3
104 -2 129 2 4 1 7 21 7 45 0 49 16 68 35 43 10 -14 12 -43 6 -78 -1 -3 -37
-20 -81 -38 -43 -18 -85 -40 -92 -48 -7 -9 -12 -44 -12 -90 0 -65 3 -77 25
-98 32 -32 89 -38 134 -15 28 14 35 15 35 4 0 -11 17 -14 74 -14 l73 0 -1 193
c-1 169 -3 196 -19 221 -30 46 -108 68 -194 56z m62 -320 c-2 -66 -6 -75 -30
-67 -21 9 -21 90 1 111 26 26 30 19 29 -44z"/>
<path d="M663 2197 c-3 -5 -6 -109 -6 -231 l0 -221 77 -3 76 -3 0 101 c0 55 3
100 8 100 26 -1 36 -22 37 -87 3 -112 4 -113 91 -113 51 0 73 3 69 11 -4 6 -8
46 -10 89 -2 90 -11 105 -70 130 l-40 17 31 7 c56 13 74 43 79 132 l3 80 -68
-1 c-38 0 -72 -3 -76 -7 -4 -4 -8 -39 -9 -77 -3 -75 -8 -91 -31 -91 -11 0 -14
18 -14 88 l0 87 -71 1 c-39 0 -73 -4 -76 -9z"/>
<path d="M1445 2200 c-1 -3 -2 -106 -1 -230 l1 -225 65 0 65 0 0 132 c0 126 7
158 19 83 7 -44 35 -179 42 -202 4 -13 16 -18 44 -18 44 0 42 -3 65 115 9 44
18 91 21 105 3 14 6 33 7 42 1 9 3 15 6 13 2 -3 5 -65 5 -137 l1 -133 63 -3
c34 -2 63 1 63 5 4 26 3 453 -1 454 -24 5 -182 3 -186 -2 -2 -4 -6 -24 -10
-44 -3 -21 -8 -47 -10 -59 -3 -11 -7 -43 -11 -69 -3 -26 -10 -50 -15 -53 -5
-3 -7 -2 -6 3 3 9 -19 135 -33 193 l-8 35 -91 0 c-50 1 -93 -2 -95 -5z"/>
<path d="M1969 2165 c0 -48 0 -395 1 -412 0 -7 25 -11 75 -10 l75 1 2 180 c3
179 3 181 26 184 l22 3 0 -184 0 -185 78 1 77 0 0 231 0 231 -177 0 -178 1 -1
-41z"/>
<path d="M2376 2200 c-2 -5 0 -423 3 -447 1 -17 276 -12 307 5 34 18 46 63 43
156 -3 64 -8 89 -22 104 -19 21 -77 36 -134 34 -18 -1 -35 3 -38 8 -4 6 -6 39
-6 75 0 36 -3 66 -7 66 -25 4 -144 4 -146 -1z m195 -247 c0 -5 2 -27 5 -50 4
-35 2 -44 -16 -53 -26 -14 -27 -13 -30 20 -6 66 0 90 20 90 11 0 20 -3 21 -7z"/>
<path d="M2782 2191 c-6 -13 -8 -283 -3 -423 1 -28 1 -28 76 -28 l75 0 0 95
c0 69 3 95 13 95 24 0 32 -16 34 -64 5 -95 58 -132 179 -123 84 6 128 26 150
68 23 46 24 281 1 325 -22 43 -78 67 -159 69 -110 3 -168 -43 -172 -136 -1
-33 -4 -39 -23 -39 -22 0 -23 3 -23 88 l0 87 -71 1 c-54 0 -72 -3 -77 -15z
m386 -211 c3 -143 -4 -178 -29 -153 -12 12 -14 276 -3 295 3 5 11 7 17 5 8 -2
13 -49 15 -147z"/>
<path d="M3349 2200 c-6 -27 -4 -82 3 -87 5 -3 25 -5 44 -5 28 0 34 -4 35 -21
0 -12 0 -95 0 -184 l-1 -163 79 0 79 0 2 177 c0 97 3 180 6 185 3 5 20 8 37 6
32 -3 32 -3 35 47 l3 50 -161 0 c-88 0 -160 -2 -161 -5z"/>
<path d="M4500 2200 c-5 -3 -9 -107 -9 -232 l0 -226 77 1 77 2 0 80 c0 62 3
81 15 86 33 13 39 -1 37 -84 l-2 -82 78 -3 77 -3 0 233 0 234 -75 -1 c-85 0
-76 12 -77 -108 -1 -57 -1 -58 -27 -55 -25 3 -26 4 -26 83 l1 80 -69 1 c-37 0
-72 -3 -77 -6z"/>
<path d="M5467 2204 c-1 -1 -22 -3 -47 -5 -95 -6 -133 -45 -132 -135 2 -64 8
-79 40 -94 l27 -13 -27 -9 c-15 -5 -30 -19 -34 -31 -10 -30 -12 -153 -4 -167
4 -7 32 -10 71 -8 l64 3 1 72 c2 86 7 103 32 103 16 0 18 -8 17 -77 -1 -43 0
-84 3 -90 3 -9 28 -13 78 -13 l74 0 0 233 0 232 -80 1 c-45 0 -82 -1 -83 -2z
m8 -144 c0 -45 -2 -50 -20 -48 -15 2 -21 12 -23 36 -4 44 3 62 25 62 15 0 18
-8 18 -50z"/>
<path d="M659 1633 c-1 -29 -1 -1036 0 -1060 l1 -23 2485 0 2485 0 0 550 0
550 -2485 0 c-2360 0 -2485 -1 -2486 -17z m659 -240 c6 -32 14 -71 16 -88 8
-51 36 -209 41 -235 3 -14 10 -52 15 -85 16 -95 20 -117 30 -168 6 -26 10 -50
10 -52 0 -3 -47 -5 -104 -5 -114 0 -111 -2 -115 70 -2 25 -5 47 -7 49 -2 2
-20 5 -39 6 -28 2 -35 -1 -36 -16 -1 -11 -3 -23 -4 -29 -1 -5 -3 -26 -4 -45
l-1 -35 -110 0 c-109 0 -110 0 -105 23 6 29 12 62 30 187 9 58 18 118 21 134
3 16 14 88 24 160 11 72 23 143 26 159 l6 27 147 0 148 0 11 -57z m357 -88
c-1 -130 1 -145 16 -145 34 0 49 29 50 93 1 101 6 154 18 176 11 19 20 21 106
21 l94 0 -10 -32 c-5 -18 -9 -74 -9 -125 0 -51 -5 -104 -12 -118 -12 -27 -72
-64 -105 -66 -10 0 1 -6 25 -14 46 -14 80 -45 87 -79 2 -12 6 -66 8 -121 2
-55 7 -108 12 -117 6 -16 -1 -18 -89 -18 -118 0 -119 1 -123 155 -2 91 -5 112
-20 123 -10 7 -24 11 -33 10 -13 -3 -15 -26 -15 -143 l0 -140 -102 -3 c-89 -2
-102 -1 -105 14 -2 10 -2 165 0 346 l3 328 102 0 102 0 0 -145z m699 128 c5
-20 13 -61 21 -113 3 -19 8 -42 10 -50 2 -8 6 -37 10 -63 3 -26 10 -71 16
-100 5 -29 12 -70 15 -92 3 -22 7 -47 10 -55 3 -8 8 -33 11 -55 2 -22 9 -58
14 -80 15 -68 19 -65 -96 -65 l-105 0 -2 33 c0 17 -2 37 -3 42 -2 6 -3 19 -4
31 -1 17 -7 20 -35 19 -19 0 -37 -3 -39 -5 -4 -5 -15 -77 -16 -107 -1 -19
-211 -18 -211 1 0 17 37 260 60 396 5 30 12 78 16 105 3 28 8 57 9 67 2 9 7
37 10 62 l7 46 148 0 c133 0 149 -2 154 -17z m711 -256 c0 -271 0 -272 21
-275 21 -3 22 -8 23 -133 l1 -130 -73 3 -72 3 1 58 1 57 -174 0 -174 0 3 -57
3 -58 -71 -3 -71 -3 0 131 c1 118 2 130 18 130 10 0 23 9 29 19 14 28 48 175
56 246 3 33 8 74 10 90 2 17 4 67 5 113 l1 82 232 0 231 0 0 -273z m453 206
l-3 -68 -65 0 -65 0 -3 -67 -3 -68 65 0 c73 0 73 -1 68 -81 l-4 -49 -64 0 -64
0 0 -78 0 -77 77 0 78 0 0 -65 0 -65 -180 0 -180 0 -1 335 c0 184 1 338 3 343
2 4 81 7 174 7 l170 0 -3 -67z m353 47 c1 -11 2 -23 3 -27 1 -5 6 -33 10 -63
5 -30 10 -64 13 -75 2 -11 6 -42 10 -68 5 -43 19 -73 20 -44 0 13 11 84 18
127 10 58 21 133 24 158 1 9 35 12 136 12 l135 0 0 -345 0 -345 -90 0 -90 0 0
222 c0 122 -2 219 -5 217 -2 -3 -9 -36 -14 -75 -19 -132 -22 -149 -31 -199 -5
-27 -12 -72 -16 -100 -3 -27 -8 -53 -11 -57 -2 -5 -31 -8 -63 -8 -47 0 -60 3
-64 18 -6 21 -14 65 -22 116 -3 21 -7 48 -10 59 -2 12 -6 37 -9 57 -3 20 -7
45 -9 57 -3 12 -8 43 -12 70 -13 85 -19 21 -18 -182 l1 -196 -89 3 -90 3 0
325 c0 179 1 333 1 343 1 15 14 17 136 17 128 0 135 -1 136 -20z m630 -137 l0
-158 20 55 c12 30 38 100 59 155 l39 100 85 3 86 3 0 -51 c1 -27 1 -160 1
-295 0 -135 0 -267 -1 -295 l0 -50 -85 0 -85 0 -1 158 0 157 -24 -65 c-13 -36
-38 -107 -56 -157 l-32 -93 -88 0 -89 0 0 345 0 345 85 0 85 0 1 -157z m843
-185 l-1 -343 -101 -3 c-77 -2 -102 0 -103 10 -1 7 -2 76 -3 153 -1 140 -1
140 -25 143 -13 2 -28 -2 -32 -10 -5 -7 -9 -77 -9 -156 l0 -143 -97 3 -96 3 1
138 c1 156 9 178 68 203 19 8 34 17 34 20 0 3 -3 3 -8 0 -16 -10 -73 24 -83
51 -14 36 -13 141 1 178 13 35 56 74 90 81 14 3 30 7 35 9 6 1 82 3 170 4
l160 2 -1 -343z"/>
<path d="M1155 1228 c-4 -35 -9 -74 -11 -88 -2 -14 -7 -50 -10 -80 l-6 -56 36
0 37 0 -6 51 c-3 27 -8 66 -10 85 -2 19 -7 60 -10 90 -3 30 -7 56 -9 58 -2 1
-7 -26 -11 -60z"/>
<path d="M2225 1268 c-5 -16 -35 -231 -35 -252 0 -10 9 -14 33 -12 30 3 32 5
32 42 -1 21 -5 75 -9 119 -5 44 -9 88 -8 98 1 20 -7 23 -13 5z"/>
<path d="M2815 1308 c-2 -7 -6 -56 -9 -108 -6 -98 -9 -119 -30 -232 l-13 -68
52 0 c33 0 54 5 57 13 4 10 3 377 -1 400 -2 12 -51 8 -56 -5z"/>
<path d="M5118 1328 c-26 -9 -28 -13 -28 -67 0 -61 11 -81 45 -81 20 0 22 5
20 75 -1 41 -3 76 -6 78 -2 3 -16 0 -31 -5z"/>
</g>
</svg>
